{"title":"Vice.Principals.S01E04.2016.480p.x264-CFKNB","uid":15513820,"size":191487910,"categoryP":"video","categoryS":"tv_shows","magnet":"?xt=urn:btih:a70f5553ef7f1bc26607938302407f9d49d7dcb9&amp;dn=Vice.Principals.S01E04.2016.480p.x264-CFKNB&amp;tr=udp%3A%2F%2Ftracker.leechers-paradise.org%3A6969&amp;tr=udp%3A%2F%2Fzer0day.ch%3A1337&amp;tr=udp%3A%2F%2Fopen.demonii.com%3A1337&amp;tr=udp%3A%2F%2Ftracker.coppersurfer.tk%3A6969&amp;tr=udp%3A%2F%2Fexodus.desync.com%3A6969","seeders":0,"leechers":1,"uploader":"CFKNB","files":5,"time":1470683653,"description":"Vice Principals S01E04 2016\r\n\r\nGamby and Russell eye a homecoming football game as a way to further break Dr. Brown's spirit.\r\n\r\nGeneral\r\nComplete name               : Vice.Principals.S01E04.2016.480p.x264-CFKNB.mkv\r\nFormat                      : Matroska\r\nFormat version              : Version 4 / Version 2\r\nFile size                   : 182 MiB\r\nDuration                    : 29 min\r\nOverall bit rate            : 854 kb/s\r\nWriting application         : Lavf57.36.100\r\nWriting library             : Lavf57.36.100 / Lavf57.36.100\r\n\r\nVideo\r\nID                          : 1\r\nFormat                      : AVC\r\nFormat/Info                 : Advanced Video Codec\r\nFormat profile              :   \r\nFormat settings, CABAC      : Yes\r\nFormat settings, ReFrames   : 4 frames\r\nCodec ID                    : V_MPEG4/ISO/AVC\r\nDuration                    : 29 min\r\nBit rate                    : 709 kb/s\r\nWidth                       : 640 pixels\r\nHeight                      : 480 pixels\r\nDisplay aspect ratio        : 16:9\r\nFrame rate mode             : Constant\r\nFrame rate                  : 23.976 (24000/1001) FPS\r\nColor space                 : YUV\r\nChroma subsampling          : 4:2:0\r\nBit depth                   : 8 bits\r\nScan type                   : Progressive\r\nBits/(Pixel*Frame)          : 0.096\r\nStream size                 : 151 MiB (83%)\r\nWriting library             : x264 core 148 r2694 3b70645\r\nDefault                     : Yes\r\nForced                      : No\r\nDURATION                    : 00:29:51.480000000\r\n\r\nAudio\r\nID                          : 2\r\nFormat                      : MPEG Audio\r\nFormat version              : Version 1\r\nFormat profile              : Layer 3\r\nMode                        : Joint stereo\r\nCodec ID                    : A_MPEG/L3\r\nCodec ID/Hint               : MP3\r\nDuration                    : 29 min\r\nBit rate mode               : Constant\r\nBit rate                    : 128 kb/s\r\nChannel(s)                  : 2 channels\r\nSampling rate               : 48.0 kHz\r\nCompression mode            : Lossy\r\nStream size                 : 27.3 MiB (15%)\r\nWriting library             : Lavc57.40.100 libmp3lame\r\nDefault                     : Yes\r\nForced                      : No\r\nDURATION                    : 00:29:51.511000000\r\n\r\nENJOY CFKNB","torrent":{"xt":"urn:btih:a70f5553ef7f1bc26607938302407f9d49d7dcb9","amp;dn":"Vice.Principals.S01E04.2016.480p.x264-CFKNB","amp;tr":["udp%3A%2F%2Ftracker.leechers-paradise.org%3A6969","udp%3A%2F%2Fzer0day.ch%3A1337","udp%3A%2F%2Fopen.demonii.com%3A1337","udp%3A%2F%2Ftracker.coppersurfer.tk%3A6969","udp%3A%2F%2Fexodus.desync.com%3A6969"],"infoHash":"a70f5553ef7f1bc26607938302407f9d49d7dcb9","infoHashBuffer":{"type":"Buffer","data":[167,15,85,83,239,127,27,194,102,7,147,131,2,64,127,157,73,215,220,185]},"announce":[],"urlList":[]}}